<?xml version="1.0" standalone="no"?>
<!DOCTYPE svg PUBLIC "-//W3C//DTD SVG 20010904//EN"
 "http://www.w3.org/TR/2001/REC-SVG-20010904/DTD/svg10.dtd">
<svg version="1.0" xmlns="http://www.w3.org/2000/svg"
 width="512.000000pt" height="512.000000pt" viewBox="0 0 512.000000 512.000000"
 preserveAspectRatio="xMidYMid meet">
<metadata>
Created by potrace 1.14, written by Peter Selinger 2001-2017
</metadata>
<g transform="translate(0.000000,512.000000) scale(0.100000,-0.100000)"
fill="#000000" stroke="none">
<path d="M2540 3933 c-18 -37 -41 -86 -52 -108 -10 -22 -23 -47 -28 -55 -5 -8
-30 -58 -54 -110 -24 -52 -94 -198 -156 -325 -61 -126 -121 -250 -133 -275
-12 -25 -28 -53 -36 -62 -8 -10 -11 -18 -8 -18 3 0 -18 -49 -48 -110 l-54
-109 -108 39 c-59 21 -138 49 -175 63 l-67 24 -162 -276 c-89 -152 -218 -373
-287 -491 -113 -195 -182 -312 -241 -410 -11 -19 -24 -42 -28 -50 -3 -8 -14
-26 -23 -40 -10 -14 -28 -45 -42 -70 -14 -25 -73 -128 -132 -229 -59 -101
-110 -189 -112 -195 -3 -8 514 -11 1962 -9 1081 0 1968 3 1970 6 3 2 -22 62
-56 132 -33 70 -60 129 -60 130 0 3 -43 97 -124 270 -24 50 -67 143 -96 209
-30 65 -59 120 -65 122 -6 3 -84 -32 -173 -76 -89 -44 -166 -80 -170 -80 -5 0
-46 69 -92 153 -107 194 -118 214 -134 240 -7 12 -29 51 -48 87 -29 54 -340
619 -440 798 -16 29 -26 58 -22 64 4 7 3 8 -5 4 -6 -4 -14 0 -18 11 -4 10 -44
83 -88 163 -45 80 -99 177 -120 215 -66 122 -125 229 -135 245 -6 8 -23 41
-40 72 -17 32 -39 72 -49 88 l-18 31 -33 -68z m80 -500 c18 -31 44 -79 60
-107 15 -28 53 -98 85 -156 32 -58 68 -123 80 -145 24 -44 279 -504 360 -650
118 -212 147 -267 142 -271 -2 -2 -55 20 -118 49 -63 30 -150 70 -194 90 l-80
37 -17 -23 c-9 -12 -23 -33 -30 -47 -11 -22 -101 -176 -128 -220 -5 -8 -41
-70 -81 -138 -39 -68 -75 -120 -79 -115 -5 4 -37 76 -73 158 -36 83 -77 179
-93 213 l-27 64 -86 -7 c-47 -3 -106 -8 -131 -10 -25 -2 -81 -7 -125 -10 -44
-3 -100 -7 -125 -10 -25 -2 -85 -7 -135 -10 -49 -3 -106 -8 -125 -10 -19 -2
-80 -7 -134 -10 -54 -3 -102 -6 -105 -7 -28 -3 -26 9 11 70 22 37 55 92 71
122 16 30 36 62 43 71 8 8 14 18 14 21 0 5 117 208 124 216 2 1 52 -16 112
-38 60 -22 116 -43 124 -46 8 -3 17 -6 20 -6 3 0 27 -9 53 -19 26 -11 50 -19
53 -19 5 0 277 554 450 917 27 57 50 103 51 103 0 0 15 -25 33 -57z"/>
</g>
</svg>
